<svg id="visual" viewBox="0 0 1920 600" width="1920" height="600" xmlns="http://www.w3.org/2000/svg" xmlns:xlink="http://www.w3.org/1999/xlink" version="1.1"><rect x="0" y="0" width="1920" height="600" fill="#A9071C"></rect><defs><linearGradient id="grad1_0" x1="68.8%" y1="0%" x2="100%" y2="100%"><stop offset="-14.000000000000007%" stop-color="#111a21" stop-opacity="1"></stop><stop offset="114.00000000000001%" stop-color="#111a21" stop-opacity="1"></stop></linearGradient></defs><defs><linearGradient id="grad1_1" x1="68.8%" y1="0%" x2="100%" y2="100%"><stop offset="-14.000000000000007%" stop-color="#111a21" stop-opacity="1"></stop><stop offset="114.00000000000001%" stop-color="#2b264d" stop-opacity="1"></stop></linearGradient></defs><defs><linearGradient id="grad1_2" x1="68.8%" y1="0%" x2="100%" y2="100%"><stop offset="-14.000000000000007%" stop-color="#761251" stop-opacity="1"></stop><stop offset="114.00000000000001%" stop-color="#2b264d" stop-opacity="1"></stop></linearGradient></defs><defs><linearGradient id="grad1_3" x1="68.8%" y1="0%" x2="100%" y2="100%"><stop offset="-14.000000000000007%" stop-color="#761251" stop-opacity="1"></stop><stop offset="114.00000000000001%" stop-color="#a9071c" stop-opacity="1"></stop></linearGradient></defs><defs><linearGradient id="grad2_0" x1="0%" y1="0%" x2="31.3%" y2="100%"><stop offset="-14.000000000000007%" stop-color="#111a21" stop-opacity="1"></stop><stop offset="114.00000000000001%" stop-color="#111a21" stop-opacity="1"></stop></linearGradient></defs><defs><linearGradient id="grad2_1" x1="0%" y1="0%" x2="31.3%" y2="100%"><stop offset="-14.000000000000007%" stop-color="#2b264d" stop-opacity="1"></stop><stop offset="114.00000000000001%" stop-color="#111a21" stop-opacity="1"></stop></linearGradient></defs><defs><linearGradient id="grad2_2" x1="0%" y1="0%" x2="31.3%" y2="100%"><stop offset="-14.000000000000007%" stop-color="#2b264d" stop-opacity="1"></stop><stop offset="114.00000000000001%" stop-color="#761251" stop-opacity="1"></stop></linearGradient></defs><defs><linearGradient id="grad2_3" x1="0%" y1="0%" x2="31.3%" y2="100%"><stop offset="-14.000000000000007%" stop-color="#a9071c" stop-opacity="1"></stop><stop offset="114.00000000000001%" stop-color="#761251" stop-opacity="1"></stop></linearGradient></defs><g transform="translate(1920, 0)"><path d="M0 480C-57.6 422.7 -115.3 365.4 -192 332.6C-268.7 299.7 -364.5 291.3 -415.7 240C-466.9 188.7 -473.4 94.3 -480 0L0 0Z" fill="#96003d"></path><path d="M0 360C-43.2 317 -86.5 274 -144 249.4C-201.5 224.8 -273.4 218.5 -311.8 180C-350.2 141.5 -355.1 70.7 -360 0L0 0Z" fill="#502257"></path><path d="M0 240C-28.8 211.3 -57.6 182.7 -96 166.3C-134.4 149.9 -182.3 145.7 -207.8 120C-233.4 94.3 -236.7 47.2 -240 0L0 0Z" fill="#132239"></path><path d="M0 120C-14.4 105.7 -28.8 91.3 -48 83.1C-67.2 74.9 -91.1 72.8 -103.9 60C-116.7 47.2 -118.4 23.6 -120 0L0 0Z" fill="#111a21"></path></g><g transform="translate(0, 600)"><path d="M0 -480C72 -447.6 144.1 -415.3 219 -379.3C293.9 -343.4 371.7 -303.8 415.7 -240C459.7 -176.2 469.8 -88.1 480 0L0 0Z" fill="#96003d"></path><path d="M0 -360C54 -335.7 108.1 -311.5 164.2 -284.5C220.4 -257.5 278.8 -227.9 311.8 -180C344.8 -132.1 352.4 -66.1 360 0L0 0Z" fill="#502257"></path><path d="M0 -240C36 -223.8 72 -207.6 109.5 -189.7C147 -171.7 185.9 -151.9 207.8 -120C229.8 -88.1 234.9 -44 240 0L0 0Z" fill="#132239"></path><path d="M0 -120C18 -111.9 36 -103.8 54.7 -94.8C73.5 -85.8 92.9 -76 103.9 -60C114.9 -44 117.5 -22 120 0L0 0Z" fill="#111a21"></path></g></svg>