<svg xmlns="http://www.w3.org/2000/svg" version="1.1" xmlns:xlink="http://www.w3.org/1999/xlink" xmlns:svgjs="http://svgjs.com/svgjs" width="1920" height="972" preserveAspectRatio="none" viewBox="0 0 1920 972"><g mask="url(&quot;#SvgjsMask1083&quot;)" fill="none"><rect width="1920" height="972" x="0" y="0" fill="rgba(169, 7, 28, 1)"></rect><path d="M0,716.424C144.186,726.005,294.064,724.379,420.067,653.636C549.666,580.874,623.678,446.622,703.671,321.356C795.917,176.902,939.154,37.965,922.134,-132.583C905.078,-303.489,736.857,-411.501,618.146,-535.627C505.292,-653.629,401.569,-788.338,246.395,-839.145C89.037,-890.667,-85.71,-877.24,-239.751,-816.516C-386.728,-758.577,-492.704,-635.573,-588.568,-509.997C-679.574,-390.786,-750.167,-259.245,-777.716,-111.819C-806.106,40.103,-822.232,206.073,-747.677,341.453C-674.655,474.049,-520.968,532.236,-385.658,600.096C-263.152,661.535,-136.747,707.337,0,716.424" fill="#860616"></path><path d="M1920 1404.23C2006.73 1387.271 2093.641 1399.953 2177.897 1373.296 2286.471 1338.945 2420.4700000000003 1324.9569999999999 2479.11 1227.337 2537.6440000000002 1129.894 2511.199 997.832 2466.121 893.48 2425.6440000000002 799.779 2319.66 760.273 2246.57 689.0260000000001 2181.261 625.364 2142.678 534.373 2059.453 497.066 1970.878 457.36 1866.749 446.399 1774.817 477.552 1684.299 508.225 1626.805 591.494 1565.189 664.5550000000001 1504.373 736.667 1447.414 810.081 1418.618 899.912 1385.796 1002.305 1359.161 1111.217 1388.886 1214.552 1420.748 1325.317 1479.4279999999999 1449.883 1587.971 1488.647 1697.739 1527.8490000000002 1805.608 1426.598 1920 1404.23" fill="#cd0922"></path></g><defs><mask id="SvgjsMask1083"><rect width="1920" height="972" fill="#ffffff"></rect></mask></defs></svg>