<svg id="visual" viewBox="0 0 1920 972" width="1920" height="972" xmlns="http://www.w3.org/2000/svg" xmlns:xlink="http://www.w3.org/1999/xlink" version="1.1"><rect x="0" y="0" width="1920" height="972" fill="#A9071C"></rect><defs><linearGradient id="grad1_0" x1="49.4%" y1="0%" x2="100%" y2="100%"><stop offset="10.49382716049383%" stop-color="#ff0022" stop-opacity="1"></stop><stop offset="89.50617283950618%" stop-color="#ff0022" stop-opacity="1"></stop></linearGradient></defs><defs><linearGradient id="grad1_1" x1="49.4%" y1="0%" x2="100%" y2="100%"><stop offset="10.49382716049383%" stop-color="#ff0022" stop-opacity="1"></stop><stop offset="89.50617283950618%" stop-color="#ed0121" stop-opacity="1"></stop></linearGradient></defs><defs><linearGradient id="grad1_2" x1="49.4%" y1="0%" x2="100%" y2="100%"><stop offset="10.49382716049383%" stop-color="#dc0220" stop-opacity="1"></stop><stop offset="89.50617283950618%" stop-color="#ed0121" stop-opacity="1"></stop></linearGradient></defs><defs><linearGradient id="grad1_3" x1="49.4%" y1="0%" x2="100%" y2="100%"><stop offset="10.49382716049383%" stop-color="#dc0220" stop-opacity="1"></stop><stop offset="89.50617283950618%" stop-color="#cb041f" stop-opacity="1"></stop></linearGradient></defs><defs><linearGradient id="grad1_4" x1="49.4%" y1="0%" x2="100%" y2="100%"><stop offset="10.49382716049383%" stop-color="#ba061e" stop-opacity="1"></stop><stop offset="89.50617283950618%" stop-color="#cb041f" stop-opacity="1"></stop></linearGradient></defs><defs><linearGradient id="grad1_5" x1="49.4%" y1="0%" x2="100%" y2="100%"><stop offset="10.49382716049383%" stop-color="#ba061e" stop-opacity="1"></stop><stop offset="89.50617283950618%" stop-color="#a9071c" stop-opacity="1"></stop></linearGradient></defs><defs><linearGradient id="grad2_0" x1="0%" y1="0%" x2="50.6%" y2="100%"><stop offset="10.49382716049383%" stop-color="#ff0022" stop-opacity="1"></stop><stop offset="89.50617283950618%" stop-color="#ff0022" stop-opacity="1"></stop></linearGradient></defs><defs><linearGradient id="grad2_1" x1="0%" y1="0%" x2="50.6%" y2="100%"><stop offset="10.49382716049383%" stop-color="#ed0121" stop-opacity="1"></stop><stop offset="89.50617283950618%" stop-color="#ff0022" stop-opacity="1"></stop></linearGradient></defs><defs><linearGradient id="grad2_2" x1="0%" y1="0%" x2="50.6%" y2="100%"><stop offset="10.49382716049383%" stop-color="#ed0121" stop-opacity="1"></stop><stop offset="89.50617283950618%" stop-color="#dc0220" stop-opacity="1"></stop></linearGradient></defs><defs><linearGradient id="grad2_3" x1="0%" y1="0%" x2="50.6%" y2="100%"><stop offset="10.49382716049383%" stop-color="#cb041f" stop-opacity="1"></stop><stop offset="89.50617283950618%" stop-color="#dc0220" stop-opacity="1"></stop></linearGradient></defs><defs><linearGradient id="grad2_4" x1="0%" y1="0%" x2="50.6%" y2="100%"><stop offset="10.49382716049383%" stop-color="#cb041f" stop-opacity="1"></stop><stop offset="89.50617283950618%" stop-color="#ba061e" stop-opacity="1"></stop></linearGradient></defs><defs><linearGradient id="grad2_5" x1="0%" y1="0%" x2="50.6%" y2="100%"><stop offset="10.49382716049383%" stop-color="#a9071c" stop-opacity="1"></stop><stop offset="89.50617283950618%" stop-color="#ba061e" stop-opacity="1"></stop></linearGradient></defs><g transform="translate(1920, 0)"><path d="M0 874.8C-118.2 868 -236.5 861.2 -334.8 808.2C-433 755.2 -511.3 656.1 -560.7 560.7C-610.1 465.4 -630.6 373.7 -678.1 280.9C-725.7 188.1 -800.2 94 -874.8 0L0 0Z" fill="#b1061d"></path><path d="M0 729C-98.5 723.3 -197.1 717.6 -279 673.5C-360.9 629.4 -426.1 546.8 -467.3 467.3C-508.4 387.8 -525.5 311.4 -565.1 234.1C-604.7 156.7 -666.9 78.4 -729 0L0 0Z" fill="#c2051e"></path><path d="M0 583.2C-78.8 578.7 -157.7 574.1 -223.2 538.8C-288.7 503.5 -340.9 437.4 -373.8 373.8C-406.7 310.2 -420.4 249.1 -452.1 187.3C-483.8 125.4 -533.5 62.7 -583.2 0L0 0Z" fill="#d30320"></path><path d="M0 437.4C-59.1 434 -118.2 430.6 -167.4 404.1C-216.5 377.6 -255.7 328.1 -280.4 280.4C-305.1 232.7 -315.3 186.9 -339.1 140.4C-362.8 94 -400.1 47 -437.4 0L0 0Z" fill="#e50221"></path><path d="M0 291.6C-39.4 289.3 -78.8 287.1 -111.6 269.4C-144.3 251.7 -170.4 218.7 -186.9 186.9C-203.4 155.1 -210.2 124.6 -226 93.6C-241.9 62.7 -266.7 31.3 -291.6 0L0 0Z" fill="#f60022"></path><path d="M0 145.8C-19.7 144.7 -39.4 143.5 -55.8 134.7C-72.2 125.9 -85.2 109.4 -93.5 93.5C-101.7 77.6 -105.1 62.3 -113 46.8C-120.9 31.3 -133.4 15.7 -145.8 0L0 0Z" fill="#ff0022"></path></g><g transform="translate(0, 972)"><path d="M0 -874.8C112 -858.6 224.1 -842.4 332.9 -803.8C441.8 -765.1 547.5 -704 618.6 -618.6C689.7 -533.1 726.2 -423.3 763.1 -316.1C800.1 -208.9 837.4 -104.5 874.8 0L0 0Z" fill="#b1061d"></path><path d="M0 -729C93.4 -715.5 186.7 -702 277.4 -669.8C368.2 -637.6 456.2 -586.7 515.5 -515.5C574.7 -444.3 605.2 -352.7 635.9 -263.4C666.7 -174.1 697.9 -87.1 729 0L0 0Z" fill="#c2051e"></path><path d="M0 -583.2C74.7 -572.4 149.4 -561.6 222 -535.9C294.5 -510.1 365 -469.4 412.4 -412.4C459.8 -355.4 484.1 -282.2 508.7 -210.7C533.4 -139.3 558.3 -69.6 583.2 0L0 0Z" fill="#d30320"></path><path d="M0 -437.4C56 -429.3 112 -421.2 166.5 -401.9C220.9 -382.6 273.7 -352 309.3 -309.3C344.8 -266.6 363.1 -211.6 381.6 -158C400 -104.5 418.7 -52.2 437.4 0L0 0Z" fill="#e50221"></path><path d="M0 -291.6C37.3 -286.2 74.7 -280.8 111 -267.9C147.3 -255 182.5 -234.7 206.2 -206.2C229.9 -177.7 242.1 -141.1 254.4 -105.4C266.7 -69.6 279.1 -34.8 291.6 0L0 0Z" fill="#f60022"></path><path d="M0 -145.8C18.7 -143.1 37.3 -140.4 55.5 -134C73.6 -127.5 91.2 -117.3 103.1 -103.1C114.9 -88.9 121 -70.5 127.2 -52.7C133.3 -34.8 139.6 -17.4 145.8 0L0 0Z" fill="#ff0022"></path></g></svg>