<svg id="visual" viewBox="0 0 1920 647" width="1920" height="647" xmlns="http://www.w3.org/2000/svg" xmlns:xlink="http://www.w3.org/1999/xlink" version="1.1"><rect x="0" y="0" width="1920" height="647" fill="#A9071C"></rect><defs><linearGradient id="grad1_0" x1="66.3%" y1="0%" x2="100%" y2="100%"><stop offset="-9.350850077279752%" stop-color="#ff0022" stop-opacity="1"></stop><stop offset="109.35085007727976%" stop-color="#ff0022" stop-opacity="1"></stop></linearGradient></defs><defs><linearGradient id="grad1_1" x1="66.3%" y1="0%" x2="100%" y2="100%"><stop offset="-9.350850077279752%" stop-color="#ff0022" stop-opacity="1"></stop><stop offset="109.35085007727976%" stop-color="#e90121" stop-opacity="1"></stop></linearGradient></defs><defs><linearGradient id="grad1_2" x1="66.3%" y1="0%" x2="100%" y2="100%"><stop offset="-9.350850077279752%" stop-color="#d30320" stop-opacity="1"></stop><stop offset="109.35085007727976%" stop-color="#e90121" stop-opacity="1"></stop></linearGradient></defs><defs><linearGradient id="grad1_3" x1="66.3%" y1="0%" x2="100%" y2="100%"><stop offset="-9.350850077279752%" stop-color="#d30320" stop-opacity="1"></stop><stop offset="109.35085007727976%" stop-color="#be051e" stop-opacity="1"></stop></linearGradient></defs><defs><linearGradient id="grad1_4" x1="66.3%" y1="0%" x2="100%" y2="100%"><stop offset="-9.350850077279752%" stop-color="#a9071c" stop-opacity="1"></stop><stop offset="109.35085007727976%" stop-color="#be051e" stop-opacity="1"></stop></linearGradient></defs><defs><linearGradient id="grad2_0" x1="0%" y1="0%" x2="33.7%" y2="100%"><stop offset="-9.350850077279752%" stop-color="#ff0022" stop-opacity="1"></stop><stop offset="109.35085007727976%" stop-color="#ff0022" stop-opacity="1"></stop></linearGradient></defs><defs><linearGradient id="grad2_1" x1="0%" y1="0%" x2="33.7%" y2="100%"><stop offset="-9.350850077279752%" stop-color="#e90121" stop-opacity="1"></stop><stop offset="109.35085007727976%" stop-color="#ff0022" stop-opacity="1"></stop></linearGradient></defs><defs><linearGradient id="grad2_2" x1="0%" y1="0%" x2="33.7%" y2="100%"><stop offset="-9.350850077279752%" stop-color="#e90121" stop-opacity="1"></stop><stop offset="109.35085007727976%" stop-color="#d30320" stop-opacity="1"></stop></linearGradient></defs><defs><linearGradient id="grad2_3" x1="0%" y1="0%" x2="33.7%" y2="100%"><stop offset="-9.350850077279752%" stop-color="#be051e" stop-opacity="1"></stop><stop offset="109.35085007727976%" stop-color="#d30320" stop-opacity="1"></stop></linearGradient></defs><defs><linearGradient id="grad2_4" x1="0%" y1="0%" x2="33.7%" y2="100%"><stop offset="-9.350850077279752%" stop-color="#be051e" stop-opacity="1"></stop><stop offset="109.35085007727976%" stop-color="#a9071c" stop-opacity="1"></stop></linearGradient></defs><g transform="translate(1920, 0)"><path d="M0 582.3C-70.4 565.7 -140.9 549 -217.7 525.7C-294.6 502.4 -378 472.3 -411.7 411.7C-445.5 351.2 -429.8 260.1 -449.9 186.4C-470.1 112.7 -526.2 56.3 -582.3 0L0 0Z" fill="#b3061d"></path><path d="M0 465.8C-56.3 452.5 -112.7 439.2 -174.2 420.5C-235.7 401.9 -302.4 377.9 -329.4 329.4C-356.4 280.9 -343.8 208.1 -359.9 149.1C-376.1 90.1 -421 45.1 -465.8 0L0 0Z" fill="#c9041f"></path><path d="M0 349.4C-42.3 339.4 -84.5 329.4 -130.6 315.4C-176.8 301.4 -226.8 283.4 -247 247C-267.3 210.7 -257.9 156 -270 111.8C-282.1 67.6 -315.7 33.8 -349.4 0L0 0Z" fill="#de0221"></path><path d="M0 232.9C-28.2 226.3 -56.3 219.6 -87.1 210.3C-117.9 200.9 -151.2 188.9 -164.7 164.7C-178.2 140.5 -171.9 104 -180 74.5C-188 45.1 -210.5 22.5 -232.9 0L0 0Z" fill="#f40122"></path><path d="M0 116.5C-14.1 113.1 -28.2 109.8 -43.5 105.1C-58.9 100.5 -75.6 94.5 -82.3 82.3C-89.1 70.2 -86 52 -90 37.3C-94 22.5 -105.2 11.3 -116.5 0L0 0Z" fill="#ff0022"></path></g><g transform="translate(0, 647)"><path d="M0 -582.3C66.6 -553.8 133.2 -525.3 208.2 -502.6C283.2 -479.8 366.6 -462.8 411.7 -411.7C456.9 -360.7 463.9 -275.6 486 -201.3C508 -127 545.2 -63.5 582.3 0L0 0Z" fill="#b3061d"></path><path d="M0 -465.8C53.3 -443.1 106.5 -420.3 166.5 -402.1C226.5 -383.9 293.3 -370.2 329.4 -329.4C365.5 -288.5 371.1 -220.5 388.8 -161C406.4 -101.6 436.1 -50.8 465.8 0L0 0Z" fill="#c9041f"></path><path d="M0 -349.4C40 -332.3 79.9 -315.2 124.9 -301.6C169.9 -287.9 219.9 -277.7 247 -247C274.2 -216.4 278.3 -165.4 291.6 -120.8C304.8 -76.2 327.1 -38.1 349.4 0L0 0Z" fill="#de0221"></path><path d="M0 -232.9C26.6 -221.5 53.3 -210.1 83.3 -201C113.3 -191.9 146.6 -185.1 164.7 -164.7C182.8 -144.3 185.6 -110.2 194.4 -80.5C203.2 -50.8 218.1 -25.4 232.9 0L0 0Z" fill="#f40122"></path><path d="M0 -116.5C13.3 -110.8 26.6 -105.1 41.6 -100.5C56.6 -96 73.3 -92.6 82.3 -82.3C91.4 -72.1 92.8 -55.1 97.2 -40.3C101.6 -25.4 109 -12.7 116.5 0L0 0Z" fill="#ff0022"></path></g></svg>