<svg id="visual" viewBox="0 0 1920 547" width="1920" height="547" xmlns="http://www.w3.org/2000/svg" xmlns:xlink="http://www.w3.org/1999/xlink" version="1.1"><path d="M0 56L53.3 55C106.7 54 213.3 52 320 52.8C426.7 53.7 533.3 57.3 640 57.3C746.7 57.3 853.3 53.7 960 49.2C1066.7 44.7 1173.3 39.3 1280 41.2C1386.7 43 1493.3 52 1600 54.7C1706.7 57.3 1813.3 53.7 1866.7 51.8L1920 50L1920 0L1866.7 0C1813.3 0 1706.7 0 1600 0C1493.3 0 1386.7 0 1280 0C1173.3 0 1066.7 0 960 0C853.3 0 746.7 0 640 0C533.3 0 426.7 0 320 0C213.3 0 106.7 0 53.3 0L0 0Z" fill="#c8444a"></path><path d="M0 110L53.3 107.3C106.7 104.7 213.3 99.3 320 100.3C426.7 101.3 533.3 108.7 640 107.8C746.7 107 853.3 98 960 91.7C1066.7 85.3 1173.3 81.7 1280 85.2C1386.7 88.7 1493.3 99.3 1600 104.7C1706.7 110 1813.3 110 1866.7 110L1920 110L1920 48L1866.7 49.8C1813.3 51.7 1706.7 55.3 1600 52.7C1493.3 50 1386.7 41 1280 39.2C1173.3 37.3 1066.7 42.7 960 47.2C853.3 51.7 746.7 55.3 640 55.3C533.3 55.3 426.7 51.7 320 50.8C213.3 50 106.7 52 53.3 53L0 54Z" fill="#be343b"></path><path d="M0 154L53.3 148.5C106.7 143 213.3 132 320 132C426.7 132 533.3 143 640 144.8C746.7 146.7 853.3 139.3 960 133.8C1066.7 128.3 1173.3 124.7 1280 127.5C1386.7 130.3 1493.3 139.7 1600 146.2C1706.7 152.7 1813.3 156.3 1866.7 158.2L1920 160L1920 108L1866.7 108C1813.3 108 1706.7 108 1600 102.7C1493.3 97.3 1386.7 86.7 1280 83.2C1173.3 79.7 1066.7 83.3 960 89.7C853.3 96 746.7 105 640 105.8C533.3 106.7 426.7 99.3 320 98.3C213.3 97.3 106.7 102.7 53.3 105.3L0 108Z" fill="#b4222b"></path><path d="M0 253L53.3 243.8C106.7 234.7 213.3 216.3 320 209.8C426.7 203.3 533.3 208.7 640 207.7C746.7 206.7 853.3 199.3 960 194.8C1066.7 190.3 1173.3 188.7 1280 192.3C1386.7 196 1493.3 205 1600 216C1706.7 227 1813.3 240 1866.7 246.5L1920 253L1920 158L1866.7 156.2C1813.3 154.3 1706.7 150.7 1600 144.2C1493.3 137.7 1386.7 128.3 1280 125.5C1173.3 122.7 1066.7 126.3 960 131.8C853.3 137.3 746.7 144.7 640 142.8C533.3 141 426.7 130 320 130C213.3 130 106.7 141 53.3 146.5L0 152Z" fill="#a9071c"></path><path d="M0 296L53.3 289.7C106.7 283.3 213.3 270.7 320 268.8C426.7 267 533.3 276 640 277.8C746.7 279.7 853.3 274.3 960 267.2C1066.7 260 1173.3 251 1280 253.7C1386.7 256.3 1493.3 270.7 1600 283.3C1706.7 296 1813.3 307 1866.7 312.5L1920 318L1920 251L1866.7 244.5C1813.3 238 1706.7 225 1600 214C1493.3 203 1386.7 194 1280 190.3C1173.3 186.7 1066.7 188.3 960 192.8C853.3 197.3 746.7 204.7 640 205.7C533.3 206.7 426.7 201.3 320 207.8C213.3 214.3 106.7 232.7 53.3 241.8L0 251Z" fill="#9a041d"></path><path d="M0 444L53.3 438.5C106.7 433 213.3 422 320 423.8C426.7 425.7 533.3 440.3 640 447.7C746.7 455 853.3 455 960 445C1066.7 435 1173.3 415 1280 404C1386.7 393 1493.3 391 1600 396.5C1706.7 402 1813.3 415 1866.7 421.5L1920 428L1920 316L1866.7 310.5C1813.3 305 1706.7 294 1600 281.3C1493.3 268.7 1386.7 254.3 1280 251.7C1173.3 249 1066.7 258 960 265.2C853.3 272.3 746.7 277.7 640 275.8C533.3 274 426.7 265 320 266.8C213.3 268.7 106.7 281.3 53.3 287.7L0 294Z" fill="#8c031d"></path><path d="M0 548L53.3 548C106.7 548 213.3 548 320 548C426.7 548 533.3 548 640 548C746.7 548 853.3 548 960 548C1066.7 548 1173.3 548 1280 548C1386.7 548 1493.3 548 1600 548C1706.7 548 1813.3 548 1866.7 548L1920 548L1920 426L1866.7 419.5C1813.3 413 1706.7 400 1600 394.5C1493.3 389 1386.7 391 1280 402C1173.3 413 1066.7 433 960 443C853.3 453 746.7 453 640 445.7C533.3 438.3 426.7 423.7 320 421.8C213.3 420 106.7 431 53.3 436.5L0 442Z" fill="#7d031c"></path></svg>